<svg xmlns="http://www.w3.org/2000/svg" xmlns:xlink="http://www.w3.org/1999/xlink" contentStyleType="text/css" height="1273px" preserveAspectRatio="none" style="width:2013px;height:1273px;background:#FFFFFF;" version="1.1" viewBox="0 0 2013 1273" width="2013px" zoomAndPan="magnify"><defs/><g><!--cluster Menu--><g id="cluster_Menu"><path d="M1344.64,6 L1389.0004,6 A3.75,3.75 0 0 1 1391.5004,8.5 L1398.5004,28.2969 L2003.64,28.2969 A2.5,2.5 0 0 1 2006.14,30.7969 L2006.14,984.63 A2.5,2.5 0 0 1 2003.64,987.13 L1344.64,987.13 A2.5,2.5 0 0 1 1342.14,984.63 L1342.14,8.5 A2.5,2.5 0 0 1 1344.64,6 " fill="none" style="stroke:#000000;stroke-width:1.5;"/><line style="stroke:#000000;stroke-width:1.5;" x1="1342.14" x2="1398.5004" y1="28.2969" y2="28.2969"/><text fill="#000000" font-family="sans-serif" font-size="14" font-weight="bold" lengthAdjust="spacing" textLength="43.3604" x="1346.14" y="20.9951">Menu</text></g><!--cluster Maze Auto Generator--><g id="cluster_Maze Auto Generator"><path d="M366.64,814.79 L535.5375,814.79 A3.75,3.75 0 0 1 538.0375,817.29 L545.0375,837.0869 L1203.64,837.0869 A2.5,2.5 0 0 1 1206.14,839.5869 L1206.14,1264.45 A2.5,2.5 0 0 1 1203.64,1266.95 L366.64,1266.95 A2.5,2.5 0 0 1 364.14,1264.45 L364.14,817.29 A2.5,2.5 0 0 1 366.64,814.79 " fill="none" style="stroke:#000000;stroke-width:1.5;"/><line style="stroke:#000000;stroke-width:1.5;" x1="364.14" x2="545.0375" y1="837.0869" y2="837.0869"/><text fill="#000000" font-family="sans-serif" font-size="14" font-weight="bold" lengthAdjust="spacing" textLength="167.8975" x="368.14" y="829.7851">Maze Auto Generator</text></g><!--class PauseMenuManager--><g id="elem_PauseMenuManager"><rect codeLine="2" fill="#F1F1F1" height="162.0781" id="PauseMenuManager" rx="2.5" ry="2.5" style="stroke:#181818;stroke-width:0.5;" width="212.7852" x="1357.75" y="41"/><ellipse cx="1390.3804" cy="57" fill="#ADD1B2" rx="11" ry="11" style="stroke:#181818;stroke-width:1;"/><path d="M1393.3492,62.6406 Q1392.771,62.9375 1392.1304,63.0781 Q1391.4898,63.2344 1390.7867,63.2344 Q1388.2867,63.2344 1386.9585,61.5938 Q1385.646,59.9375 1385.646,56.8125 Q1385.646,53.6875 1386.9585,52.0313 Q1388.2867,50.375 1390.7867,50.375 Q1391.4898,50.375 1392.1304,50.5313 Q1392.7867,50.6875 1393.3492,50.9844 L1393.3492,53.7031 Q1392.7242,53.125 1392.1304,52.8594 Q1391.5367,52.5781 1390.9117,52.5781 Q1389.5679,52.5781 1388.8804,53.6563 Q1388.1929,54.7188 1388.1929,56.8125 Q1388.1929,58.9063 1388.8804,59.9844 Q1389.5679,61.0469 1390.9117,61.0469 Q1391.5367,61.0469 1392.1304,60.7813 Q1392.7242,60.5 1393.3492,59.9219 L1393.3492,62.6406 Z " fill="#000000"/><text fill="#000000" font-family="sans-serif" font-size="14" lengthAdjust="spacing" textLength="141.6064" x="1408.2983" y="61.8467">PauseMenuManager</text><line style="stroke:#181818;stroke-width:0.5;" x1="1358.75" x2="1569.5352" y1="73" y2="73"/><rect fill="none" height="6" style="stroke:#C82930;stroke-width:1;" width="6" x="1365.75" y="83.6484"/><text fill="#000000" font-family="sans-serif" font-size="14" lengthAdjust="spacing" textLength="186.7852" x="1377.75" y="89.9951">GameObject pauseMenuUI</text><rect fill="none" height="6" style="stroke:#C82930;stroke-width:1;" width="6" x="1365.75" y="99.9453"/><text fill="#000000" font-family="sans-serif" font-size="14" lengthAdjust="spacing" textLength="96.2295" x="1377.75" y="106.292">bool isPaused</text><line style="stroke:#181818;stroke-width:0.5;" x1="1358.75" x2="1569.5352" y1="113.5938" y2="113.5938"/><ellipse cx="1368.75" cy="127.2422" fill="#84BE84" rx="3" ry="3" style="stroke:#038048;stroke-width:1;"/><text fill="#000000" font-family="sans-serif" font-size="14" lengthAdjust="spacing" textLength="95.7031" x="1377.75" y="130.5889">void Update()</text><ellipse cx="1368.75" cy="143.5391" fill="#84BE84" rx="3" ry="3" style="stroke:#038048;stroke-width:1;"/><text fill="#000000" font-family="sans-serif" font-size="14" lengthAdjust="spacing" textLength="143.4385" x="1377.75" y="146.8857">void ResumeGame()</text><ellipse cx="1368.75" cy="159.8359" fill="#84BE84" rx="3" ry="3" style="stroke:#038048;stroke-width:1;"/><text fill="#000000" font-family="sans-serif" font-size="14" lengthAdjust="spacing" textLength="128.4814" x="1377.75" y="163.1826">void PauseGame()</text><ellipse cx="1368.75" cy="176.1328" fill="#84BE84" rx="3" ry="3" style="stroke:#038048;stroke-width:1;"/><text fill="#000000" font-family="sans-serif" font-size="14" lengthAdjust="spacing" textLength="121.0439" x="1377.75" y="179.4795">void SaveGame()</text><ellipse cx="1368.75" cy="192.4297" fill="#84BE84" rx="3" ry="3" style="stroke:#038048;stroke-width:1;"/><text fill="#000000" font-family="sans-serif" font-size="14" lengthAdjust="spacing" textLength="181.3096" x="1377.75" y="195.7764">void ReturnToMainMenu()</text></g><!--class MainMenu--><g id="elem_MainMenu"><rect codeLine="13" fill="#F1F1F1" height="129.4844" id="MainMenu" rx="2.5" ry="2.5" style="stroke:#181818;stroke-width:0.5;" width="175.6318" x="1525.32" y="451.19"/><ellipse cx="1572.9562" cy="467.19" fill="#ADD1B2" rx="11" ry="11" style="stroke:#181818;stroke-width:1;"/><path d="M1575.925,472.8306 Q1575.3469,473.1275 1574.7062,473.2681 Q1574.0656,473.4244 1573.3625,473.4244 Q1570.8625,473.4244 1569.5344,471.7838 Q1568.2219,470.1275 1568.2219,467.0025 Q1568.2219,463.8775 1569.5344,462.2213 Q1570.8625,460.565 1573.3625,460.565 Q1574.0656,460.565 1574.7062,460.7213 Q1575.3625,460.8775 1575.925,461.1744 L1575.925,463.8931 Q1575.3,463.315 1574.7062,463.0494 Q1574.1125,462.7681 1573.4875,462.7681 Q1572.1437,462.7681 1571.4562,463.8463 Q1570.7687,464.9088 1570.7687,467.0025 Q1570.7687,469.0963 1571.4562,470.1744 Q1572.1437,471.2369 1573.4875,471.2369 Q1574.1125,471.2369 1574.7062,470.9713 Q1575.3,470.69 1575.925,470.1119 L1575.925,472.8306 Z " fill="#000000"/><text fill="#000000" font-family="sans-serif" font-size="14" lengthAdjust="spacing" textLength="71.8594" x="1593.4562" y="472.0367">MainMenu</text><line style="stroke:#181818;stroke-width:0.5;" x1="1526.32" x2="1699.9518" y1="483.19" y2="483.19"/><rect fill="none" height="6" style="stroke:#C82930;stroke-width:1;" width="6" x="1533.32" y="493.8384"/><text fill="#000000" font-family="sans-serif" font-size="14" lengthAdjust="spacing" textLength="133.2393" x="1545.32" y="500.1851">string saveFilePath</text><line style="stroke:#181818;stroke-width:0.5;" x1="1526.32" x2="1699.9518" y1="507.4869" y2="507.4869"/><ellipse cx="1536.32" cy="521.1353" fill="#84BE84" rx="3" ry="3" style="stroke:#038048;stroke-width:1;"/><text fill="#000000" font-family="sans-serif" font-size="14" lengthAdjust="spacing" textLength="79.2012" x="1545.32" y="524.482">void Start()</text><ellipse cx="1536.32" cy="537.4322" fill="#84BE84" rx="3" ry="3" style="stroke:#038048;stroke-width:1;"/><text fill="#000000" font-family="sans-serif" font-size="14" lengthAdjust="spacing" textLength="115.876" x="1545.32" y="540.7789">void PlayGame()</text><ellipse cx="1536.32" cy="553.7291" fill="#84BE84" rx="3" ry="3" style="stroke:#038048;stroke-width:1;"/><text fill="#000000" font-family="sans-serif" font-size="14" lengthAdjust="spacing" textLength="149.6318" x="1545.32" y="557.0757">void ContinueGame()</text><ellipse cx="1536.32" cy="570.0259" fill="#84BE84" rx="3" ry="3" style="stroke:#038048;stroke-width:1;"/><text fill="#000000" font-family="sans-serif" font-size="14" lengthAdjust="spacing" textLength="115.9512" x="1545.32" y="573.3726">void QuitGame()</text></g><!--class EndGameMenu--><g id="elem_EndGameMenu"><rect codeLine="21" fill="#F1F1F1" height="80.5938" id="EndGameMenu" rx="2.5" ry="2.5" style="stroke:#181818;stroke-width:0.5;" width="207.3096" x="1359.48" y="890.54"/><ellipse cx="1405.5235" cy="906.54" fill="#ADD1B2" rx="11" ry="11" style="stroke:#181818;stroke-width:1;"/><path d="M1408.4922,912.1806 Q1407.9141,912.4775 1407.2735,912.6181 Q1406.6328,912.7744 1405.9297,912.7744 Q1403.4297,912.7744 1402.1016,911.1338 Q1400.7891,909.4775 1400.7891,906.3525 Q1400.7891,903.2275 1402.1016,901.5713 Q1403.4297,899.915 1405.9297,899.915 Q1406.6328,899.915 1407.2735,900.0713 Q1407.9297,900.2275 1408.4922,900.5244 L1408.4922,903.2431 Q1407.8672,902.665 1407.2735,902.3994 Q1406.6797,902.1181 1406.0547,902.1181 Q1404.711,902.1181 1404.0235,903.1963 Q1403.336,904.2588 1403.336,906.3525 Q1403.336,908.4463 1404.0235,909.5244 Q1404.711,910.5869 1406.0547,910.5869 Q1406.6797,910.5869 1407.2735,910.3213 Q1407.8672,910.04 1408.4922,909.4619 L1408.4922,912.1806 Z " fill="#000000"/><text fill="#000000" font-family="sans-serif" font-size="14" lengthAdjust="spacing" textLength="106.7227" x="1426.0235" y="911.3867">EndGameMenu</text><line style="stroke:#181818;stroke-width:0.5;" x1="1360.48" x2="1565.7896" y1="922.54" y2="922.54"/><line style="stroke:#181818;stroke-width:0.5;" x1="1360.48" x2="1565.7896" y1="930.54" y2="930.54"/><ellipse cx="1370.48" cy="944.1884" fill="#84BE84" rx="3" ry="3" style="stroke:#038048;stroke-width:1;"/><text fill="#000000" font-family="sans-serif" font-size="14" lengthAdjust="spacing" textLength="137.6279" x="1379.48" y="947.5351">void RestartGame()</text><ellipse cx="1370.48" cy="960.4853" fill="#84BE84" rx="3" ry="3" style="stroke:#038048;stroke-width:1;"/><text fill="#000000" font-family="sans-serif" font-size="14" lengthAdjust="spacing" textLength="181.3096" x="1379.48" y="963.832">void ReturnToMainMenu()</text></g><!--class AudioController--><g id="elem_AudioController"><rect codeLine="26" fill="#F1F1F1" height="162.0781" id="AudioController" rx="2.5" ry="2.5" style="stroke:#181818;stroke-width:0.5;" width="384.9961" x="1605.64" y="41"/><ellipse cx="1739.4056" cy="57" fill="#ADD1B2" rx="11" ry="11" style="stroke:#181818;stroke-width:1;"/><path d="M1742.3744,62.6406 Q1741.7963,62.9375 1741.1556,63.0781 Q1740.515,63.2344 1739.8119,63.2344 Q1737.3119,63.2344 1735.9838,61.5938 Q1734.6713,59.9375 1734.6713,56.8125 Q1734.6713,53.6875 1735.9838,52.0313 Q1737.3119,50.375 1739.8119,50.375 Q1740.515,50.375 1741.1556,50.5313 Q1741.8119,50.6875 1742.3744,50.9844 L1742.3744,53.7031 Q1741.7494,53.125 1741.1556,52.8594 Q1740.5619,52.5781 1739.9369,52.5781 Q1738.5931,52.5781 1737.9056,53.6563 Q1737.2181,54.7188 1737.2181,56.8125 Q1737.2181,58.9063 1737.9056,59.9844 Q1738.5931,61.0469 1739.9369,61.0469 Q1740.5619,61.0469 1741.1556,60.7813 Q1741.7494,60.5 1742.3744,59.9219 L1742.3744,62.6406 Z " fill="#000000"/><text fill="#000000" font-family="sans-serif" font-size="14" lengthAdjust="spacing" textLength="108.9648" x="1759.9056" y="61.8467">AudioController</text><line style="stroke:#181818;stroke-width:0.5;" x1="1606.64" x2="1989.6361" y1="73" y2="73"/><rect fill="none" height="6" style="stroke:#C82930;stroke-width:1;" width="6" x="1613.64" y="83.6484"/><text fill="#000000" font-family="sans-serif" font-size="14" lengthAdjust="spacing" textLength="358.9961" x="1625.64" y="89.9951">static AudioController instance { get; private set; }</text><rect fill="none" height="6" style="stroke:#C82930;stroke-width:1;" width="6" x="1613.64" y="99.9453"/><text fill="#000000" font-family="sans-serif" font-size="14" lengthAdjust="spacing" textLength="189.417" x="1625.64" y="106.292">AudioSource _musicSource</text><rect fill="none" height="6" style="stroke:#C82930;stroke-width:1;" width="6" x="1613.64" y="116.2422"/><text fill="#000000" font-family="sans-serif" font-size="14" lengthAdjust="spacing" textLength="164.6025" x="1625.64" y="122.5889">GameObject _muteIcon</text><rect fill="none" height="6" style="stroke:#C82930;stroke-width:1;" width="6" x="1613.64" y="132.5391"/><text fill="#000000" font-family="sans-serif" font-size="14" lengthAdjust="spacing" textLength="182.3486" x="1625.64" y="138.8857">GameObject _unmuteIcon</text><rect fill="none" height="6" style="stroke:#C82930;stroke-width:1;" width="6" x="1613.64" y="148.8359"/><text fill="#000000" font-family="sans-serif" font-size="14" lengthAdjust="spacing" textLength="77.9707" x="1625.64" y="155.1826">bool _mute</text><line style="stroke:#181818;stroke-width:0.5;" x1="1606.64" x2="1989.6361" y1="162.4844" y2="162.4844"/><ellipse cx="1616.64" cy="176.1328" fill="#84BE84" rx="3" ry="3" style="stroke:#038048;stroke-width:1;"/><text fill="#000000" font-family="sans-serif" font-size="14" lengthAdjust="spacing" textLength="92.3945" x="1625.64" y="179.4795">void Toggle()</text><ellipse cx="1616.64" cy="192.4297" fill="#84BE84" rx="3" ry="3" style="stroke:#038048;stroke-width:1;"/><text fill="#000000" font-family="sans-serif" font-size="14" lengthAdjust="spacing" textLength="91.3281" x="1625.64" y="195.7764">void Awake()</text></g><!--class MazeGenerator--><g id="elem_MazeGenerator"><rect codeLine="38" fill="#F1F1F1" height="162.0781" id="MazeGenerator" rx="2.5" ry="2.5" style="stroke:#181818;stroke-width:0.5;" width="810.3213" x="379.98" y="849.79"/><ellipse cx="727.0337" cy="865.79" fill="#ADD1B2" rx="11" ry="11" style="stroke:#181818;stroke-width:1;"/><path d="M730.0025,871.4306 Q729.4243,871.7275 728.7837,871.8681 Q728.1431,872.0244 727.44,872.0244 Q724.94,872.0244 723.6118,870.3838 Q722.2993,868.7275 722.2993,865.6025 Q722.2993,862.4775 723.6118,860.8213 Q724.94,859.165 727.44,859.165 Q728.1431,859.165 728.7837,859.3213 Q729.44,859.4775 730.0025,859.7744 L730.0025,862.4931 Q729.3775,861.915 728.7837,861.6494 Q728.19,861.3681 727.565,861.3681 Q726.2212,861.3681 725.5337,862.4463 Q724.8462,863.5088 724.8462,865.6025 Q724.8462,867.6963 725.5337,868.7744 Q726.2212,869.8369 727.565,869.8369 Q728.19,869.8369 728.7837,869.5713 Q729.3775,869.29 730.0025,868.7119 L730.0025,871.4306 Z " fill="#000000"/><text fill="#000000" font-family="sans-serif" font-size="14" lengthAdjust="spacing" textLength="107.7139" x="747.5337" y="870.6367">MazeGenerator</text><line style="stroke:#181818;stroke-width:0.5;" x1="380.98" x2="1189.3013" y1="881.79" y2="881.79"/><line style="stroke:#181818;stroke-width:0.5;" x1="380.98" x2="1189.3013" y1="889.79" y2="889.79"/><ellipse cx="390.98" cy="903.4384" fill="#84BE84" rx="3" ry="3" style="stroke:#038048;stroke-width:1;"/><text fill="#000000" font-family="sans-serif" font-size="14" lengthAdjust="spacing" textLength="343.7998" x="399.98" y="906.7851">static WallState[,] Generate(int width, int height)</text><ellipse cx="390.98" cy="919.7353" fill="#84BE84" rx="3" ry="3" style="stroke:#038048;stroke-width:1;"/><text fill="#000000" font-family="sans-serif" font-size="14" lengthAdjust="spacing" textLength="563.042" x="399.98" y="923.082">static Position FindFarthestEdgePosition(WallState[,] maze, int width, int height)</text><ellipse cx="390.98" cy="936.0322" fill="#84BE84" rx="3" ry="3" style="stroke:#038048;stroke-width:1;"/><text fill="#000000" font-family="sans-serif" font-size="14" lengthAdjust="spacing" textLength="784.3213" x="399.98" y="939.3789">static List&lt;Position&gt; CalculateShortestPath(WallState[,] maze, Position start, Position end, int width, int height)</text><rect fill="#F24D5C" height="6" style="stroke:#C82930;stroke-width:1;" width="6" x="387.98" y="949.3291"/><text fill="#000000" font-family="sans-serif" font-size="14" lengthAdjust="spacing" textLength="342.8359" x="399.98" y="955.6757">static WallState GetOppositeWall(WallState wall)</text><rect fill="#F24D5C" height="6" style="stroke:#C82930;stroke-width:1;" width="6" x="387.98" y="965.6259"/><text fill="#000000" font-family="sans-serif" font-size="14" lengthAdjust="spacing" textLength="604.8369" x="399.98" y="971.9726">static WallState[,] ApplyRecursiveBacktracker(WallState[,] maze, int width, int height)</text><rect fill="#F24D5C" height="6" style="stroke:#C82930;stroke-width:1;" width="6" x="387.98" y="981.9228"/><text fill="#000000" font-family="sans-serif" font-size="14" lengthAdjust="spacing" textLength="698.4688" x="399.98" y="988.2695">static List&lt;Neighbour&gt; GetUnvisitedNeighbours(Position p, WallState[,] maze, int width, int height)</text><rect fill="#F24D5C" height="6" style="stroke:#C82930;stroke-width:1;" width="6" x="387.98" y="998.2197"/><text fill="#000000" font-family="sans-serif" font-size="14" lengthAdjust="spacing" textLength="391.6172" x="399.98" y="1004.5664">static bool IsEdgeCell(Position pos, int width, int height)</text></g><!--class GameState--><g id="elem_GameState"><rect codeLine="48" fill="#F1F1F1" height="162.0781" id="GameState" rx="2.5" ry="2.5" style="stroke:#181818;stroke-width:0.5;" width="224.3174" x="965.98" y="1088.87"/><ellipse cx="1034.5205" cy="1104.87" fill="#ADD1B2" rx="11" ry="11" style="stroke:#181818;stroke-width:1;"/><path d="M1037.4893,1110.5106 Q1036.9112,1110.8075 1036.2705,1110.9481 Q1035.6299,1111.1044 1034.9268,1111.1044 Q1032.4268,1111.1044 1031.0987,1109.4638 Q1029.7862,1107.8075 1029.7862,1104.6825 Q1029.7862,1101.5575 1031.0987,1099.9013 Q1032.4268,1098.245 1034.9268,1098.245 Q1035.6299,1098.245 1036.2705,1098.4013 Q1036.9268,1098.5575 1037.4893,1098.8544 L1037.4893,1101.5731 Q1036.8643,1100.995 1036.2705,1100.7294 Q1035.6768,1100.4481 1035.0518,1100.4481 Q1033.708,1100.4481 1033.0205,1101.5263 Q1032.333,1102.5888 1032.333,1104.6825 Q1032.333,1106.7763 1033.0205,1107.8544 Q1033.708,1108.9169 1035.0518,1108.9169 Q1035.6768,1108.9169 1036.2705,1108.6513 Q1036.8643,1108.37 1037.4893,1107.7919 L1037.4893,1110.5106 Z " fill="#000000"/><text fill="#000000" font-family="sans-serif" font-size="14" lengthAdjust="spacing" textLength="78.7363" x="1055.0205" y="1109.7167">GameState</text><line style="stroke:#181818;stroke-width:0.5;" x1="966.98" x2="1189.2974" y1="1120.87" y2="1120.87"/><ellipse cx="976.98" cy="1134.5184" fill="none" rx="3" ry="3" style="stroke:#038048;stroke-width:1;"/><text fill="#000000" font-family="sans-serif" font-size="14" lengthAdjust="spacing" textLength="101.8623" x="985.98" y="1137.8651">int mazeWidth</text><ellipse cx="976.98" cy="1150.8153" fill="none" rx="3" ry="3" style="stroke:#038048;stroke-width:1;"/><text fill="#000000" font-family="sans-serif" font-size="14" lengthAdjust="spacing" textLength="107.1602" x="985.98" y="1154.162">int mazeHeight</text><ellipse cx="976.98" cy="1167.1122" fill="none" rx="3" ry="3" style="stroke:#038048;stroke-width:1;"/><text fill="#000000" font-family="sans-serif" font-size="14" lengthAdjust="spacing" textLength="88.7305" x="985.98" y="1170.4589">float cellSize</text><ellipse cx="976.98" cy="1183.4091" fill="none" rx="3" ry="3" style="stroke:#038048;stroke-width:1;"/><text fill="#000000" font-family="sans-serif" font-size="14" lengthAdjust="spacing" textLength="105.2324" x="985.98" y="1186.7557">int[] mazeData</text><ellipse cx="976.98" cy="1199.7059" fill="none" rx="3" ry="3" style="stroke:#038048;stroke-width:1;"/><text fill="#000000" font-family="sans-serif" font-size="14" lengthAdjust="spacing" textLength="158.0742" x="985.98" y="1203.0526">Vector3 playerPosition</text><ellipse cx="976.98" cy="1216.0028" fill="none" rx="3" ry="3" style="stroke:#038048;stroke-width:1;"/><text fill="#000000" font-family="sans-serif" font-size="14" lengthAdjust="spacing" textLength="140.3418" x="985.98" y="1219.3495">Vector3 exitPosition</text><ellipse cx="976.98" cy="1232.2997" fill="none" rx="3" ry="3" style="stroke:#038048;stroke-width:1;"/><text fill="#000000" font-family="sans-serif" font-size="14" lengthAdjust="spacing" textLength="198.3174" x="985.98" y="1235.6464">List&lt;Vector3&gt; coinPositions</text><line style="stroke:#181818;stroke-width:0.5;" x1="966.98" x2="1189.2974" y1="1242.9481" y2="1242.9481"/></g><!--class WallState--><g id="elem_WallState"><rect codeLine="58" fill="#F1F1F1" height="145.7813" id="WallState" rx="2.5" ry="2.5" style="stroke:#181818;stroke-width:0.5;" width="99.2588" x="709.51" y="1097.02"/><ellipse cx="724.51" cy="1113.02" fill="#EB937F" rx="11" ry="11" style="stroke:#181818;stroke-width:1;"/><path d="M728.6194,1119.02 L720.9006,1119.02 L720.9006,1106.6294 L728.6194,1106.6294 L728.6194,1108.7856 L723.3538,1108.7856 L723.3538,1111.4575 L728.1194,1111.4575 L728.1194,1113.6138 L723.3538,1113.6138 L723.3538,1116.8638 L728.6194,1116.8638 L728.6194,1119.02 Z " fill="#000000"/><text fill="#000000" font-family="sans-serif" font-size="14" lengthAdjust="spacing" textLength="67.2588" x="738.51" y="1117.8667">WallState</text><line style="stroke:#181818;stroke-width:0.5;" x1="710.51" x2="807.7688" y1="1129.02" y2="1129.02"/><text fill="#000000" font-family="sans-serif" font-size="14" lengthAdjust="spacing" textLength="40.8105" x="715.51" y="1146.0151">NONE</text><text fill="#000000" font-family="sans-serif" font-size="14" lengthAdjust="spacing" textLength="33.25" x="715.51" y="1162.312">LEFT</text><text fill="#000000" font-family="sans-serif" font-size="14" lengthAdjust="spacing" textLength="43.7842" x="715.51" y="1178.6089">RIGHT</text><text fill="#000000" font-family="sans-serif" font-size="14" lengthAdjust="spacing" textLength="18.6895" x="715.51" y="1194.9057">UP</text><text fill="#000000" font-family="sans-serif" font-size="14" lengthAdjust="spacing" textLength="46.1152" x="715.51" y="1211.2026">DOWN</text><text fill="#000000" font-family="sans-serif" font-size="14" lengthAdjust="spacing" textLength="54.8994" x="715.51" y="1227.4995">VISITED</text><line style="stroke:#181818;stroke-width:0.5;" x1="710.51" x2="807.7688" y1="1234.8013" y2="1234.8013"/></g><!--class Position--><g id="elem_Position"><rect codeLine="67" fill="#F1F1F1" height="80.5938" id="Position" rx="2.5" ry="2.5" style="stroke:#181818;stroke-width:0.5;" width="87.0088" x="843.64" y="1129.61"/><ellipse cx="858.64" cy="1145.61" fill="#ADD1B2" rx="11" ry="11" style="stroke:#181818;stroke-width:1;"/><path d="M861.6088,1151.2506 Q861.0306,1151.5475 860.39,1151.6881 Q859.7494,1151.8444 859.0463,1151.8444 Q856.5463,1151.8444 855.2181,1150.2038 Q853.9056,1148.5475 853.9056,1145.4225 Q853.9056,1142.2975 855.2181,1140.6413 Q856.5463,1138.985 859.0463,1138.985 Q859.7494,1138.985 860.39,1139.1413 Q861.0463,1139.2975 861.6088,1139.5944 L861.6088,1142.3131 Q860.9838,1141.735 860.39,1141.4694 Q859.7963,1141.1881 859.1713,1141.1881 Q857.8275,1141.1881 857.14,1142.2663 Q856.4525,1143.3288 856.4525,1145.4225 Q856.4525,1147.5163 857.14,1148.5944 Q857.8275,1149.6569 859.1713,1149.6569 Q859.7963,1149.6569 860.39,1149.3913 Q860.9838,1149.11 861.6088,1148.5319 L861.6088,1151.2506 Z " fill="#000000"/><text fill="#000000" font-family="sans-serif" font-size="14" lengthAdjust="spacing" textLength="55.0088" x="872.64" y="1150.4567">Position</text><line style="stroke:#181818;stroke-width:0.5;" x1="844.64" x2="929.6488" y1="1161.61" y2="1161.61"/><ellipse cx="854.64" cy="1175.2584" fill="none" rx="3" ry="3" style="stroke:#038048;stroke-width:1;"/><text fill="#000000" font-family="sans-serif" font-size="14" lengthAdjust="spacing" textLength="32.293" x="863.64" y="1178.6051">int X</text><ellipse cx="854.64" cy="1191.5553" fill="none" rx="3" ry="3" style="stroke:#038048;stroke-width:1;"/><text fill="#000000" font-family="sans-serif" font-size="14" lengthAdjust="spacing" textLength="31.2539" x="863.64" y="1194.902">int Y</text><line style="stroke:#181818;stroke-width:0.5;" x1="844.64" x2="929.6488" y1="1202.2038" y2="1202.2038"/></g><!--class Neighbour--><g id="elem_Neighbour"><rect codeLine="72" fill="#F1F1F1" height="80.5938" id="Neighbour" rx="2.5" ry="2.5" style="stroke:#181818;stroke-width:0.5;" width="177.5049" x="497.39" y="1129.61"/><ellipse cx="545.4842" cy="1145.61" fill="#ADD1B2" rx="11" ry="11" style="stroke:#181818;stroke-width:1;"/><path d="M548.453,1151.2506 Q547.8749,1151.5475 547.2342,1151.6881 Q546.5936,1151.8444 545.8905,1151.8444 Q543.3905,1151.8444 542.0624,1150.2038 Q540.7499,1148.5475 540.7499,1145.4225 Q540.7499,1142.2975 542.0624,1140.6413 Q543.3905,1138.985 545.8905,1138.985 Q546.5936,1138.985 547.2342,1139.1413 Q547.8905,1139.2975 548.453,1139.5944 L548.453,1142.3131 Q547.828,1141.735 547.2342,1141.4694 Q546.6405,1141.1881 546.0155,1141.1881 Q544.6717,1141.1881 543.9842,1142.2663 Q543.2967,1143.3288 543.2967,1145.4225 Q543.2967,1147.5163 543.9842,1148.5944 Q544.6717,1149.6569 546.0155,1149.6569 Q546.6405,1149.6569 547.2342,1149.3913 Q547.828,1149.11 548.453,1148.5319 L548.453,1151.2506 Z " fill="#000000"/><text fill="#000000" font-family="sans-serif" font-size="14" lengthAdjust="spacing" textLength="72.8164" x="565.9842" y="1150.4567">Neighbour</text><line style="stroke:#181818;stroke-width:0.5;" x1="498.39" x2="673.8949" y1="1161.61" y2="1161.61"/><ellipse cx="508.39" cy="1175.2584" fill="none" rx="3" ry="3" style="stroke:#038048;stroke-width:1;"/><text fill="#000000" font-family="sans-serif" font-size="14" lengthAdjust="spacing" textLength="114.4678" x="517.39" y="1178.6051">Position Position</text><ellipse cx="508.39" cy="1191.5553" fill="none" rx="3" ry="3" style="stroke:#038048;stroke-width:1;"/><text fill="#000000" font-family="sans-serif" font-size="14" lengthAdjust="spacing" textLength="151.5049" x="517.39" y="1194.902">WallState SharedWall</text><line style="stroke:#181818;stroke-width:0.5;" x1="498.39" x2="673.8949" y1="1202.2038" y2="1202.2038"/></g><!--class MazeRenderer--><g id="elem_MazeRenderer"><rect codeLine="84" fill="#F1F1F1" height="471.7188" id="MazeRenderer" rx="2.5" ry="2.5" style="stroke:#181818;stroke-width:0.5;" width="675.0723" x="447.6" y="280.08"/><ellipse cx="730.1566" cy="296.08" fill="#ADD1B2" rx="11" ry="11" style="stroke:#181818;stroke-width:1;"/><path d="M733.1254,301.7206 Q732.5473,302.0175 731.9066,302.1581 Q731.266,302.3144 730.5629,302.3144 Q728.0629,302.3144 726.7348,300.6738 Q725.4223,299.0175 725.4223,295.8925 Q725.4223,292.7675 726.7348,291.1113 Q728.0629,289.455 730.5629,289.455 Q731.266,289.455 731.9066,289.6113 Q732.5629,289.7675 733.1254,290.0644 L733.1254,292.7831 Q732.5004,292.205 731.9066,291.9394 Q731.3129,291.6581 730.6879,291.6581 Q729.3441,291.6581 728.6566,292.7363 Q727.9691,293.7988 727.9691,295.8925 Q727.9691,297.9863 728.6566,299.0644 Q729.3441,300.1269 730.6879,300.1269 Q731.3129,300.1269 731.9066,299.8613 Q732.5004,299.58 733.1254,299.0019 L733.1254,301.7206 Z " fill="#000000"/><text fill="#000000" font-family="sans-serif" font-size="14" lengthAdjust="spacing" textLength="101.459" x="750.6566" y="300.9267">MazeRenderer</text><line style="stroke:#181818;stroke-width:0.5;" x1="448.6" x2="1121.6723" y1="312.08" y2="312.08"/><rect fill="none" height="6" style="stroke:#C82930;stroke-width:1;" width="6" x="455.6" y="322.7284"/><text fill="#000000" font-family="sans-serif" font-size="14" lengthAdjust="spacing" textLength="68.291" x="467.6" y="329.0751">int _width</text><rect fill="none" height="6" style="stroke:#C82930;stroke-width:1;" width="6" x="455.6" y="339.0253"/><text fill="#000000" font-family="sans-serif" font-size="14" lengthAdjust="spacing" textLength="74.3271" x="467.6" y="345.372">int _height</text><rect fill="none" height="6" style="stroke:#C82930;stroke-width:1;" width="6" x="455.6" y="355.3222"/><text fill="#000000" font-family="sans-serif" font-size="14" lengthAdjust="spacing" textLength="95.7305" x="467.6" y="361.6689">float _cellSize</text><rect fill="none" height="6" style="stroke:#C82930;stroke-width:1;" width="6" x="455.6" y="371.6191"/><text fill="#000000" font-family="sans-serif" font-size="14" lengthAdjust="spacing" textLength="156.4063" x="467.6" y="377.9657">Transform _wallPrefab</text><rect fill="none" height="6" style="stroke:#C82930;stroke-width:1;" width="6" x="455.6" y="387.9159"/><text fill="#000000" font-family="sans-serif" font-size="14" lengthAdjust="spacing" textLength="160.3027" x="467.6" y="394.2626">Transform _floorPrefab</text><rect fill="none" height="6" style="stroke:#C82930;stroke-width:1;" width="6" x="455.6" y="404.2128"/><text fill="#000000" font-family="sans-serif" font-size="14" lengthAdjust="spacing" textLength="157.623" x="467.6" y="410.5595">Transform _coinPrefab</text><rect fill="none" height="6" style="stroke:#C82930;stroke-width:1;" width="6" x="455.6" y="420.5097"/><text fill="#000000" font-family="sans-serif" font-size="14" lengthAdjust="spacing" textLength="154.875" x="467.6" y="426.8564">Transform _exitPrefab</text><rect fill="none" height="6" style="stroke:#C82930;stroke-width:1;" width="6" x="455.6" y="436.8066"/><text fill="#000000" font-family="sans-serif" font-size="14" lengthAdjust="spacing" textLength="240.7754" x="467.6" y="443.1532">LineRenderer _lineRendererPrefab</text><rect fill="none" height="6" style="stroke:#C82930;stroke-width:1;" width="6" x="455.6" y="453.1034"/><text fill="#000000" font-family="sans-serif" font-size="14" lengthAdjust="spacing" textLength="100.3037" x="467.6" y="459.4501">int _coinCount</text><rect fill="none" height="6" style="stroke:#C82930;stroke-width:1;" width="6" x="455.6" y="469.4003"/><text fill="#000000" font-family="sans-serif" font-size="14" lengthAdjust="spacing" textLength="127.4014" x="467.6" y="475.747">Transform _player</text><rect fill="none" height="6" style="stroke:#C82930;stroke-width:1;" width="6" x="455.6" y="485.6972"/><text fill="#000000" font-family="sans-serif" font-size="14" lengthAdjust="spacing" textLength="147.3418" x="467.6" y="492.0439">Vector3 _exitPosition</text><rect fill="none" height="6" style="stroke:#C82930;stroke-width:1;" width="6" x="455.6" y="501.9941"/><text fill="#000000" font-family="sans-serif" font-size="14" lengthAdjust="spacing" textLength="189.8818" x="467.6" y="508.3407">Vector3 _lastPlayerPosition</text><rect fill="none" height="6" style="stroke:#C82930;stroke-width:1;" width="6" x="455.6" y="518.2909"/><text fill="#000000" font-family="sans-serif" font-size="14" lengthAdjust="spacing" textLength="113.6133" x="467.6" y="524.6376">float _helpTimer</text><rect fill="none" height="6" style="stroke:#C82930;stroke-width:1;" width="6" x="455.6" y="534.5878"/><text fill="#000000" font-family="sans-serif" font-size="14" lengthAdjust="spacing" textLength="130.5732" x="467.6" y="540.9345">bool _isPathShown</text><line style="stroke:#181818;stroke-width:0.5;" x1="448.6" x2="1121.6723" y1="548.2363" y2="548.2363"/><ellipse cx="458.6" cy="561.8847" fill="#84BE84" rx="3" ry="3" style="stroke:#038048;stroke-width:1;"/><text fill="#000000" font-family="sans-serif" font-size="14" lengthAdjust="spacing" textLength="79.2012" x="467.6" y="565.2314">void Start()</text><ellipse cx="458.6" cy="578.1816" fill="#84BE84" rx="3" ry="3" style="stroke:#038048;stroke-width:1;"/><text fill="#000000" font-family="sans-serif" font-size="14" lengthAdjust="spacing" textLength="257.3525" x="467.6" y="581.5282">void RenderMaze(WallState[,] maze)</text><ellipse cx="458.6" cy="594.4784" fill="#84BE84" rx="3" ry="3" style="stroke:#038048;stroke-width:1;"/><text fill="#000000" font-family="sans-serif" font-size="14" lengthAdjust="spacing" textLength="233.9941" x="467.6" y="597.8251">void PlaceExit(WallState[,] maze)</text><ellipse cx="458.6" cy="610.7753" fill="#84BE84" rx="3" ry="3" style="stroke:#038048;stroke-width:1;"/><text fill="#000000" font-family="sans-serif" font-size="14" lengthAdjust="spacing" textLength="245.8818" x="467.6" y="614.122">void PlaceCoins(WallState[,] maze)</text><ellipse cx="458.6" cy="627.0722" fill="#84BE84" rx="3" ry="3" style="stroke:#038048;stroke-width:1;"/><text fill="#000000" font-family="sans-serif" font-size="14" lengthAdjust="spacing" textLength="374.9922" x="467.6" y="630.4189">IEnumerator CheckPlayerProgress(WallState[,] maze)</text><ellipse cx="458.6" cy="643.3691" fill="#84BE84" rx="3" ry="3" style="stroke:#038048;stroke-width:1;"/><text fill="#000000" font-family="sans-serif" font-size="14" lengthAdjust="spacing" textLength="270.8672" x="467.6" y="646.7157">void SetMazeSize(int width, int height)</text><rect fill="#F24D5C" height="6" style="stroke:#C82930;stroke-width:1;" width="6" x="455.6" y="656.6659"/><text fill="#000000" font-family="sans-serif" font-size="14" lengthAdjust="spacing" textLength="130.2998" x="467.6" y="663.0126">void RenderFloor()</text><rect fill="#F24D5C" height="6" style="stroke:#C82930;stroke-width:1;" width="6" x="455.6" y="672.9628"/><text fill="#000000" font-family="sans-serif" font-size="14" lengthAdjust="spacing" textLength="286.4805" x="467.6" y="679.3095">Vector3 CalculateCellPosition(int x, int z)</text><rect fill="#F24D5C" height="6" style="stroke:#C82930;stroke-width:1;" width="6" x="455.6" y="689.2597"/><text fill="#000000" font-family="sans-serif" font-size="14" lengthAdjust="spacing" textLength="649.0723" x="467.6" y="695.6064">void RenderWallIfExists(WallState cell, WallState wallState, Vector3 position, float rotationY)</text><rect fill="#F24D5C" height="6" style="stroke:#C82930;stroke-width:1;" width="6" x="455.6" y="705.5566"/><text fill="#000000" font-family="sans-serif" font-size="14" lengthAdjust="spacing" textLength="271.3389" x="467.6" y="711.9032">void ShowHelpPath(WallState[,] maze)</text><rect fill="#F24D5C" height="6" style="stroke:#C82930;stroke-width:1;" width="6" x="455.6" y="721.8534"/><text fill="#000000" font-family="sans-serif" font-size="14" lengthAdjust="spacing" textLength="144.915" x="467.6" y="728.2001">void ClearHelpPath()</text><rect fill="#F24D5C" height="6" style="stroke:#C82930;stroke-width:1;" width="6" x="455.6" y="738.1503"/><text fill="#000000" font-family="sans-serif" font-size="14" lengthAdjust="spacing" textLength="113.2852" x="467.6" y="744.497">void EndGame()</text></g><!--class MiniMap--><g id="elem_MiniMap"><rect codeLine="113" fill="#F1F1F1" height="129.4844" id="MiniMap" rx="2.5" ry="2.5" style="stroke:#181818;stroke-width:0.5;" width="225.2813" x="568.5" y="57.29"/><ellipse cx="647.7524" cy="73.29" fill="#ADD1B2" rx="11" ry="11" style="stroke:#181818;stroke-width:1;"/><path d="M650.7212,78.9306 Q650.1431,79.2275 649.5024,79.3681 Q648.8618,79.5244 648.1587,79.5244 Q645.6587,79.5244 644.3306,77.8837 Q643.0181,76.2275 643.0181,73.1025 Q643.0181,69.9775 644.3306,68.3212 Q645.6587,66.665 648.1587,66.665 Q648.8618,66.665 649.5024,66.8212 Q650.1587,66.9775 650.7212,67.2744 L650.7212,69.9931 Q650.0962,69.415 649.5024,69.1494 Q648.9087,68.8681 648.2837,68.8681 Q646.9399,68.8681 646.2524,69.9462 Q645.5649,71.0087 645.5649,73.1025 Q645.5649,75.1962 646.2524,76.2744 Q646.9399,77.3369 648.2837,77.3369 Q648.9087,77.3369 649.5024,77.0712 Q650.0962,76.79 650.7212,76.2119 L650.7212,78.9306 Z " fill="#000000"/><text fill="#000000" font-family="sans-serif" font-size="14" lengthAdjust="spacing" textLength="58.2764" x="668.2524" y="78.1367">MiniMap</text><line style="stroke:#181818;stroke-width:0.5;" x1="569.5" x2="792.7813" y1="89.29" y2="89.29"/><rect fill="none" height="6" style="stroke:#C82930;stroke-width:1;" width="6" x="576.5" y="99.9384"/><text fill="#000000" font-family="sans-serif" font-size="14" lengthAdjust="spacing" textLength="174.166" x="588.5" y="106.2851">Camera miniMapCamera</text><rect fill="none" height="6" style="stroke:#C82930;stroke-width:1;" width="6" x="576.5" y="116.2353"/><text fill="#000000" font-family="sans-serif" font-size="14" lengthAdjust="spacing" textLength="181.7334" x="588.5" y="122.582">RawImage miniMapImage</text><rect fill="none" height="6" style="stroke:#C82930;stroke-width:1;" width="6" x="576.5" y="132.5322"/><text fill="#000000" font-family="sans-serif" font-size="14" lengthAdjust="spacing" textLength="199.2813" x="588.5" y="138.8789">RectTransform miniMapRect</text><line style="stroke:#181818;stroke-width:0.5;" x1="569.5" x2="792.7813" y1="146.1806" y2="146.1806"/><ellipse cx="579.5" cy="159.8291" fill="#84BE84" rx="3" ry="3" style="stroke:#038048;stroke-width:1;"/><text fill="#000000" font-family="sans-serif" font-size="14" lengthAdjust="spacing" textLength="79.2012" x="588.5" y="163.1757">void Start()</text><ellipse cx="579.5" cy="176.1259" fill="#84BE84" rx="3" ry="3" style="stroke:#038048;stroke-width:1;"/><text fill="#000000" font-family="sans-serif" font-size="14" lengthAdjust="spacing" textLength="176.0254" x="588.5" y="179.4726">void AdjustMiniMapSize()</text></g><!--class DifficultyManager--><g id="elem_DifficultyManager"><rect codeLine="121" fill="#F1F1F1" height="113.1875" id="DifficultyManager" rx="2.5" ry="2.5" style="stroke:#181818;stroke-width:0.5;" width="338.2793" x="7" y="874.24"/><ellipse cx="109.8809" cy="890.24" fill="#ADD1B2" rx="11" ry="11" style="stroke:#181818;stroke-width:1;"/><path d="M112.8496,895.8806 Q112.2715,896.1775 111.6309,896.3181 Q110.9902,896.4744 110.2871,896.4744 Q107.7871,896.4744 106.459,894.8338 Q105.1465,893.1775 105.1465,890.0525 Q105.1465,886.9275 106.459,885.2713 Q107.7871,883.615 110.2871,883.615 Q110.9902,883.615 111.6309,883.7713 Q112.2871,883.9275 112.8496,884.2244 L112.8496,886.9431 Q112.2246,886.365 111.6309,886.0994 Q111.0371,885.8181 110.4121,885.8181 Q109.0684,885.8181 108.3809,886.8963 Q107.6934,887.9588 107.6934,890.0525 Q107.6934,892.1463 108.3809,893.2244 Q109.0684,894.2869 110.4121,894.2869 Q111.0371,894.2869 111.6309,894.0213 Q112.2246,893.74 112.8496,893.1619 L112.8496,895.8806 Z " fill="#000000"/><text fill="#000000" font-family="sans-serif" font-size="14" lengthAdjust="spacing" textLength="124.0176" x="130.3809" y="895.0867">DifficultyManager</text><line style="stroke:#181818;stroke-width:0.5;" x1="8" x2="344.2793" y1="906.24" y2="906.24"/><ellipse cx="18" cy="919.8884" fill="none" rx="3" ry="3" style="stroke:#038048;stroke-width:1;"/><text fill="#000000" font-family="sans-serif" font-size="14" lengthAdjust="spacing" textLength="246.7021" x="27" y="923.2351">TMP_Dropdown DifficultyDropdown</text><ellipse cx="18" cy="936.1853" fill="none" rx="3" ry="3" style="stroke:#038048;stroke-width:1;"/><text fill="#000000" font-family="sans-serif" font-size="14" lengthAdjust="spacing" textLength="188.9316" x="27" y="939.532">static int SelectedDifficulty</text><line style="stroke:#181818;stroke-width:0.5;" x1="8" x2="344.2793" y1="946.8338" y2="946.8338"/><ellipse cx="18" cy="960.4822" fill="#84BE84" rx="3" ry="3" style="stroke:#038048;stroke-width:1;"/><text fill="#000000" font-family="sans-serif" font-size="14" lengthAdjust="spacing" textLength="79.2012" x="27" y="963.8289">void Start()</text><rect fill="#F24D5C" height="6" style="stroke:#C82930;stroke-width:1;" width="6" x="15" y="973.7791"/><text fill="#000000" font-family="sans-serif" font-size="14" lengthAdjust="spacing" textLength="312.2793" x="27" y="980.1257">void OnDifficultyChanged(int difficultyIndex)</text></g><!--link MazeGenerator to GameState--><g id="link_MazeGenerator_GameState"><path codeLine="78" d="M884.34,1012.1 C914.88,1036.81 943.835,1060.2467 974.385,1084.9567 " fill="none" id="MazeGenerator-to-GameState" style="stroke:#181818;stroke-width:1;"/><polygon fill="#181818" points="979.05,1088.73,974.568,1079.9601,975.1625,1085.5856,969.5369,1086.1801,979.05,1088.73" style="stroke:#181818;stroke-width:1;"/><text fill="#000000" font-family="sans-serif" font-size="13" lengthAdjust="spacing" textLength="58.8936" x="941.14" y="1054.9369">generate</text></g><!--link MazeGenerator to WallState--><g id="link_MazeGenerator_WallState"><path codeLine="79" d="M776.34,1012.1 C773.33,1039.5 770.6438,1063.9957 767.7138,1090.7257 " fill="none" id="MazeGenerator-to-WallState" style="stroke:#181818;stroke-width:1;"/><polygon fill="#181818" points="767.06,1096.69,772.0168,1088.1794,767.6048,1091.7198,764.0645,1087.3077,767.06,1096.69" style="stroke:#181818;stroke-width:1;"/><text fill="#000000" font-family="sans-serif" font-size="13" lengthAdjust="spacing" textLength="62.645" x="773.14" y="1054.9369">reference</text></g><!--link MazeGenerator to Position--><g id="link_MazeGenerator_Position"><path codeLine="80" d="M828.45,1012.35 C833.27,1022.2 837.95,1032.2 842.14,1041.87 C854.57,1070.53 864.3888,1098.1525 872.7488,1123.4725 " fill="none" id="MazeGenerator-to-Position" style="stroke:#181818;stroke-width:1;"/><polygon fill="#181818" points="874.63,1129.17,875.6066,1119.3697,873.0624,1124.4221,868.0099,1121.8779,874.63,1129.17" style="stroke:#181818;stroke-width:1;"/><text fill="#000000" font-family="sans-serif" font-size="13" lengthAdjust="spacing" textLength="62.645" x="850.14" y="1054.9369">reference</text></g><!--link MazeGenerator to Neighbour--><g id="link_MazeGenerator_Neighbour"><path codeLine="81" d="M717.77,1012.1 C684.62,1051.59 649.9975,1092.8344 623.2375,1124.7144 " fill="none" id="MazeGenerator-to-Neighbour" style="stroke:#181818;stroke-width:1;"/><polygon fill="#181818" points="619.38,1129.31,628.23,1124.9883,622.5946,1125.4803,622.1026,1119.8449,619.38,1129.31" style="stroke:#181818;stroke-width:1;"/><text fill="#000000" font-family="sans-serif" font-size="13" lengthAdjust="spacing" textLength="62.645" x="692.14" y="1054.9369">reference</text></g><!--link MiniMap to DifficultyManager--><g id="link_MiniMap_DifficultyManager"><path codeLine="128" d="M568.21,164.97 C512.45,190.7 448.09,228.68 405.14,280.08 C252.89,462.25 199.8687,746.6147 183.3787,867.8447 " fill="none" id="MiniMap-to-DifficultyManager" style="stroke:#181818;stroke-width:1;"/><polygon fill="#181818" points="182.57,873.79,187.7465,865.4112,183.2439,868.8356,179.8195,864.333,182.57,873.79" style="stroke:#181818;stroke-width:1;"/><text fill="#000000" font-family="sans-serif" font-size="13" lengthAdjust="spacing" textLength="23.0103" x="406.14" y="520.4969">use</text></g><!--link MiniMap to MazeRenderer--><g id="link_MiniMap_MazeRenderer"><path codeLine="129" d="M724.62,187 C732.92,201.62 740.7,217.47 746.14,233.08 C751.39,248.12 754.4988,258.0132 758.4288,274.0132 " fill="none" id="MiniMap-to-MazeRenderer" style="stroke:#181818;stroke-width:1;"/><polygon fill="#181818" points="759.86,279.84,761.5977,270.1457,758.6673,274.9843,753.8287,272.0539,759.86,279.84" style="stroke:#181818;stroke-width:1;"/><text fill="#000000" font-family="sans-serif" font-size="13" lengthAdjust="spacing" textLength="39.9395" x="751.14" y="246.1469">adjust</text></g><!--link MiniMap to MazeRenderer--><g id="link_MiniMap_MazeRenderer"><path codeLine="131" d="M671.34,187.14 C669.9,207.42 670.07,229.83 674.14,250.08 C676.11,259.85 676.8911,263.9234 679.5311,273.8034 " fill="none" id="MiniMap-to-MazeRenderer-1" style="stroke:#181818;stroke-width:1;"/><polygon fill="#181818" points="681.08,279.6,682.6211,269.8725,679.7893,274.7695,674.8922,271.9377,681.08,279.6" style="stroke:#181818;stroke-width:1;"/><text fill="#000000" font-family="sans-serif" font-size="13" lengthAdjust="spacing" textLength="62.645" x="675.14" y="246.1469">reference</text></g><!--link MazeRenderer to DifficultyManager--><g id="link_MazeRenderer_DifficultyManager"><path codeLine="130" d="M447.25,746.02 C376.94,793.69 313.996,836.3627 263.736,870.4427 " fill="none" id="MazeRenderer-to-DifficultyManager" style="stroke:#181818;stroke-width:1;"/><polygon fill="#181818" points="258.77,873.81,268.4639,872.0697,262.9083,871.0039,263.9741,865.4484,258.77,873.81" style="stroke:#181818;stroke-width:1;"/><text fill="#000000" font-family="sans-serif" font-size="13" lengthAdjust="spacing" textLength="23.0103" x="391.14" y="794.8569">use</text></g><!--link PauseMenuManager to MazeRenderer--><g id="link_PauseMenuManager_MazeRenderer"><path codeLine="132" d="M1357.3,184.7 C1293.34,221.61 1213.3565,267.7806 1128.3065,316.8706 " fill="none" id="PauseMenuManager-to-MazeRenderer" style="stroke:#181818;stroke-width:1;"/><polygon fill="#181818" points="1123.11,319.87,1132.9044,318.8353,1127.4404,317.3705,1128.9052,311.9066,1123.11,319.87" style="stroke:#181818;stroke-width:1;"/><text fill="#000000" font-family="sans-serif" font-size="13" lengthAdjust="spacing" textLength="62.5942" x="1264.14" y="246.1469">save/load</text></g><!--link MazeRenderer to MazeGenerator--><g id="link_MazeRenderer_MazeGenerator"><path codeLine="133" d="M785.14,752.03 C785.14,787.03 785.14,814.9 785.14,843.53 " fill="none" id="MazeRenderer-to-MazeGenerator" style="stroke:#181818;stroke-width:1;"/><polygon fill="#181818" points="785.14,849.53,789.14,840.53,785.14,844.53,781.14,840.53,785.14,849.53" style="stroke:#181818;stroke-width:1;"/><text fill="#000000" font-family="sans-serif" font-size="13" lengthAdjust="spacing" textLength="23.0103" x="786.14" y="794.8569">use</text></g><!--link MazeRenderer to GameState--><g id="link_MazeRenderer_GameState"><path codeLine="134" d="M1122.75,698.67 C1156.87,730.26 1186.76,766.23 1208.14,806.79 C1250.63,887.43 1239.03,926.12 1208.14,1011.87 C1198.18,1039.51 1184.8159,1061.0834 1166.1659,1083.9134 " fill="none" id="MazeRenderer-to-GameState" style="stroke:#181818;stroke-width:1;"/><polygon fill="#181818" points="1162.37,1088.56,1171.1616,1084.1206,1165.5332,1084.6878,1164.9661,1079.0594,1162.37,1088.56" style="stroke:#181818;stroke-width:1;"/><text fill="#000000" font-family="sans-serif" font-size="13" lengthAdjust="spacing" textLength="62.5942" x="1236.14" y="935.3969">save/load</text></g><!--link PauseMenuManager to MainMenu--><g id="link_PauseMenuManager_MainMenu"><path codeLine="136" d="M1489.79,203.28 C1495.02,218.86 1500.62,235.03 1506.14,250.08 C1531.55,319.33 1561.2311,391.9962 1583.5911,445.3562 " fill="none" id="PauseMenuManager-to-MainMenu" style="stroke:#181818;stroke-width:1;"/><polygon fill="#181818" points="1585.91,450.89,1586.1209,441.0434,1583.9776,446.2785,1578.7425,444.1352,1585.91,450.89" style="stroke:#181818;stroke-width:1;"/><text fill="#000000" font-family="sans-serif" font-size="13" lengthAdjust="spacing" textLength="40.2632" x="1507.14" y="246.1469">return</text></g><!--link MainMenu to PauseMenuManager--><g id="link_MainMenu_PauseMenuManager"><path codeLine="138" d="M1607.74,450.95 C1600.85,391.99 1585.52,303.27 1552.14,233.08 C1547.36,223.02 1544.8366,218.0567 1538.4266,208.4767 " fill="none" id="MainMenu-to-PauseMenuManager" style="stroke:#181818;stroke-width:1;"/><polygon fill="#181818" points="1535.09,203.49,1536.7704,213.1944,1537.8705,207.6456,1543.4194,208.7456,1535.09,203.49" style="stroke:#181818;stroke-width:1;"/><text fill="#000000" font-family="sans-serif" font-size="13" lengthAdjust="spacing" textLength="50.502" x="1559.14" y="246.1469">interact</text></g><!--link PauseMenuManager to EndGameMenu--><g id="link_PauseMenuManager_EndGameMenu"><path codeLine="137" d="M1455.61,203.24 C1453.36,227.86 1451.25,255.05 1450.14,280.08 C1440.82,489.52 1442.5,542.28 1450.14,751.79 C1451.88,799.49 1455.7011,848.2534 1458.8911,884.3034 " fill="none" id="PauseMenuManager-to-EndGameMenu" style="stroke:#181818;stroke-width:1;"/><polygon fill="#181818" points="1459.42,890.28,1462.6111,880.9625,1458.9793,885.2995,1454.6423,881.6676,1459.42,890.28" style="stroke:#181818;stroke-width:1;"/><text fill="#000000" font-family="sans-serif" font-size="13" lengthAdjust="spacing" textLength="56.8242" x="1451.14" y="520.4969">navigate</text></g><!--link MainMenu to EndGameMenu--><g id="link_MainMenu_EndGameMenu"><path codeLine="139" d="M1589.87,581 C1558.47,667.41 1505.5486,813.0805 1479.5686,884.6005 " fill="none" id="MainMenu-to-EndGameMenu" style="stroke:#181818;stroke-width:1;"/><polygon fill="#181818" points="1477.52,890.24,1484.3525,883.1465,1479.2271,885.5405,1476.8332,880.4151,1477.52,890.24" style="stroke:#181818;stroke-width:1;"/><text fill="#000000" font-family="sans-serif" font-size="13" lengthAdjust="spacing" textLength="40.2632" x="1516.14" y="794.8569">return</text></g><!--link MainMenu to GameState--><g id="link_MainMenu_GameState"><path codeLine="140" d="M1630.34,581.09 C1653.73,683.85 1682.3,886.49 1584.14,1011.87 C1535.45,1074.07 1330.2313,1122.353 1196.5513,1148.153 " fill="none" id="MainMenu-to-GameState" style="stroke:#181818;stroke-width:1;"/><polygon fill="#181818" points="1190.66,1149.29,1200.2549,1151.512,1195.5694,1148.3425,1198.7389,1143.657,1190.66,1149.29" style="stroke:#181818;stroke-width:1;"/><text fill="#000000" font-family="sans-serif" font-size="13" lengthAdjust="spacing" textLength="27.7837" x="1652.14" y="935.3969">load</text></g><!--SRC=[dLVRRkCu37rklaAOfnHji0_xbbqKwAP96w2NR99ETp1O1Agjn9ewaY79wMNGVrzIbcKfZgSxqmAjHHwIHoH5sGLDdkY6aKytJ9IVoFSUWPyafrgJ6IqrG_4D5G1HJea_0t99j-pkyHjB32bgtFqq03nAcHEkhPFKoq_8JlAKt1SfDQn_l2-VCrrk6Vfkwwodmwe5tNLevioKIYpb3UK2AJh4U- -e5-oqraOxr4PniI4QV4zupcRKPAsuXYfpW6bENm_J6KbXk2WxoFvTSXDetaEAOv6YQezbapPayfCf2BoVbocNI4x9FFULnXnGmvEMcWjGY8IHxsJ3p1-aK7m7zIGQ5-_ErXejPAa0jzgMcYVLejTg8D0QDasaEA0gnPxIzfMrw0MRNChD9gytxsJdp_G9HU_msojydzCt1joC99TCC4MDL77R8y2hG7DqT5BduO7cETJSiA-d_zRchC-58SyyDTafmSUCyKrcZaExcTJSS2d8X8jq0fNAe63ZTCDgHJ_ol0K6bQyVkxtcslnPkpWZ8vedPGu-5fbK1Y9WonxoxEdOhWdMJAG_Y3jefG5oOEwA0iqP2fjWv1cU3XiXZ_EYo5_dB2cLvZls5zJ6AFZ3r4ybOX0buXRbZz1YPqZhNkmuqagzMFVzFejJyajnREzDDLPkn62xZKEfk-sZauQzNMMewYn4OlW7D8maLzRUYjQvf8Oa47B1trYD-beHlw26Mj5dE31I_KuA63zCrTmY5NlX9bBOp3dj6Kaa5xLQU-8mCxP1pPlfStjtE_QBw_5awHVpwULLixgV-SUBkuTRl_WyNKoNuulsEF9v3ISTvkMVlVMNjgslTsJiFVhTDxfcQukCAfRYklPh_ySJOJ0u2weuX0bOpO4EQEDzI1HRCyL4qeNrB3-6DjiCiS2u6M9pECuWjpDiODEriktf1gaLL4tg95MRhNoVLTAbeaAlfTg2EUnb1j7eOri7nb9rAMrZTUXiJuQwQouQxgiyM4KmonyTZsGfJDjlTGoSl3u0g-W4xEaWSsOM7vueCHdBYoNVUgVLLOJlE2Q3cViiUXtl1lucncrWQTfZBW82YOIDWUd_mOqW1ReRE1t3yNMDCyfOykHsgEH6CQq_YB1W1lbYEtJTSrKkWWrEi1FwntlPzRSJJav_xw6ZbyhVsm5NI6wwXane4p2rap0OuVQoiK-dpH1q4KvTyPJ44Ix5boWALkqAgdhufeoWevnHvR6HohsRsLUD-lnnmMzeuL-aHXHhGBQLk5evrPm-JxVuQkAKTb7hO3TDIpi02Z_ejFFqMwcD8s6B5t2xuEirXrgOr_Z5_eGiRsQh2oMB57evWDKYXtAN8TPimN8Wmz86sqNCfUfEDD1HHiM6fRO7KY-TGjrVBDiwXpZksfo713u78amqyuQ4sXpq8kalkce6REkRw00QlnX-WwPBsx7ZEUxYxeF2owNnrHNQVRaWINpFFmmBlnw6HD0Tt-2DvQtjvRDlECGI0zN4nC3OcGiR8S8T8Fd_0000]--></g></svg>